<svg width="23" height="27" viewBox="0 0 23 27" fill="none" xmlns="http://www.w3.org/2000/svg">
<path d="M22.2141 21.7746L18.3288 17.38L15.3404 15.9834C16.3354 14.3829 16.8685 12.4734 16.8666 10.5168C16.8666 5.25701 13.0835 0.977909 8.43331 0.977909C3.78316 0.977909 0 5.25701 0 10.5168C0 15.7765 3.78316 20.0556 8.43331 20.0556C10.1783 20.0579 11.8804 19.4445 13.3025 18.3008L14.534 21.672L18.4191 26.0668C18.6683 26.3486 18.9641 26.5722 19.2897 26.7247C19.6152 26.8773 19.9641 26.9558 20.3165 26.9558C20.6689 26.9558 21.0179 26.8773 21.3434 26.7248C21.669 26.5723 21.9648 26.3487 22.214 26.0669C22.4632 25.7851 22.6608 25.4505 22.7957 25.0823C22.9306 24.714 23 24.3193 23 23.9208C23 23.5222 22.9306 23.1275 22.7958 22.7593C22.6609 22.391 22.4633 22.0564 22.2141 21.7746ZM1.53333 10.5168C1.53333 6.21344 4.62874 2.71225 8.43331 2.71225C12.2379 2.71225 15.3333 6.21344 15.3333 10.5168C15.3333 14.8201 12.2379 18.3213 8.43331 18.3213C4.62874 18.3213 1.53333 14.8201 1.53333 10.5168ZM21.1298 24.8404C20.914 25.084 20.6215 25.2208 20.3166 25.2208C20.0117 25.2208 19.7193 25.084 19.5034 24.8404L15.8344 20.6904L14.6894 17.5558L17.4608 18.8508L21.1299 23.0009C21.3452 23.2451 21.4661 23.5758 21.4661 23.9207C21.4661 24.2655 21.3452 24.5963 21.1298 24.8404Z" fill="white"/>
</svg>
